<svg width="16" height="16" viewBox="0 0 16 16" fill="none" xmlns="http://www.w3.org/2000/svg">
<g filter="url(#filter0_d_66_59)">
<path d="M14.5733 8.31996L12.7666 5.33329C12.6503 5.13178 12.4833 4.96421 12.2821 4.84726C12.0809 4.7303 11.8527 4.66803 11.62 4.66663H9.99998V3.33329C9.99998 3.15648 9.92974 2.98691 9.80472 2.86189C9.67969 2.73686 9.51012 2.66663 9.33331 2.66663H2.66665C2.31302 2.66663 1.97389 2.8071 1.72384 3.05715C1.47379 3.3072 1.33331 3.64634 1.33331 3.99996V10.6666C1.33355 10.9004 1.39527 11.1301 1.51229 11.3325C1.6293 11.5349 1.79749 11.7031 1.99998 11.82C1.97611 12.4388 2.19905 13.0418 2.61976 13.4962C3.04046 13.9507 3.62447 14.2194 4.24331 14.2433C4.86215 14.2672 5.46513 14.0442 5.91959 13.6235C6.37405 13.2028 6.64278 12.6188 6.66665 12H8.73331C8.80703 12.5578 9.08095 13.0698 9.50407 13.4406C9.92718 13.8115 10.4707 14.016 11.0333 14.016C11.596 14.016 12.1394 13.8115 12.5626 13.4406C12.9857 13.0698 13.2596 12.5578 13.3333 12C13.6869 12 14.0261 11.8595 14.2761 11.6094C14.5262 11.3594 14.6666 11.0202 14.6666 10.6666V8.66663C14.6656 8.545 14.6335 8.42567 14.5733 8.31996ZM4.33331 12.6666C4.13553 12.6666 3.94219 12.608 3.77774 12.4981C3.61329 12.3882 3.48512 12.232 3.40943 12.0493C3.33375 11.8666 3.31394 11.6655 3.35253 11.4715C3.39111 11.2776 3.48635 11.0994 3.62621 10.9595C3.76606 10.8197 3.94424 10.7244 4.13822 10.6858C4.3322 10.6473 4.53327 10.6671 4.716 10.7427C4.89872 10.8184 5.0549 10.9466 5.16478 11.1111C5.27466 11.2755 5.33331 11.4688 5.33331 11.6666C5.33331 11.9318 5.22796 12.1862 5.04042 12.3737C4.85288 12.5613 4.59853 12.6666 4.33331 12.6666ZM7.99998 7.33329H6.66665V8.66663H5.33331V7.33329H3.99998V5.99996H5.33331V4.66663H6.66665V5.99996H7.99998V7.33329ZM11 12.6666C10.8022 12.6666 10.6089 12.608 10.4444 12.4981C10.28 12.3882 10.1518 12.232 10.0761 12.0493C10.0004 11.8666 9.98061 11.6655 10.0192 11.4715C10.0578 11.2776 10.153 11.0994 10.2929 10.9595C10.4327 10.8197 10.6109 10.7244 10.8049 10.6858C10.9989 10.6473 11.1999 10.6671 11.3827 10.7427C11.5654 10.8184 11.7216 10.9466 11.8314 11.1111C11.9413 11.2755 12 11.4688 12 11.6666C12 11.9318 11.8946 12.1862 11.7071 12.3737C11.5195 12.5613 11.2652 12.6666 11 12.6666ZM9.99998 7.99996V5.99996H11.62L12.82 7.99996H9.99998Z" fill="#3CE7D2"/>
</g>

</svg>
