<svg width="24" height="24" viewBox="0 0 24 24" fill="none" xmlns="http://www.w3.org/2000/svg">
<rect x="1.00003" y="1" width="22" height="22" fill="#505050"/>
<path d="M20.584 23.9173H3.41735C2.53329 23.9173 1.68545 23.5661 1.06033 22.941C0.435204 22.3159 0.0840149 21.468 0.0840149 20.584V3.41866C0.0840149 2.53461 0.435204 1.68676 1.06033 1.06164C1.68545 0.436517 2.53329 0.0853271 3.41735 0.0853271H20.584C21.4681 0.0853271 22.3159 0.436517 22.941 1.06164C23.5662 1.68676 23.9173 2.53461 23.9173 3.41866V20.584C23.9173 21.468 23.5662 22.3159 22.941 22.941C22.3159 23.5661 21.4681 23.9173 20.584 23.9173ZM3.41735 1.41866C2.88692 1.41866 2.37821 1.62937 2.00313 2.00445C1.62806 2.37952 1.41735 2.88823 1.41735 3.41866V20.584C1.41735 21.1144 1.62806 21.6231 2.00313 21.9982C2.37821 22.3733 2.88692 22.584 3.41735 22.584H20.584C21.1144 22.584 21.6232 22.3733 21.9982 21.9982C22.3733 21.6231 22.584 21.1144 22.584 20.584V3.41866C22.584 2.88823 22.3733 2.37952 21.9982 2.00445C21.6232 1.62937 21.1144 1.41866 20.584 1.41866H3.41735Z" fill="#505050"/>
<path d="M11.2134 12.6147C11.3031 12.3173 11.4585 12.0439 11.668 11.8147C11.8813 11.5999 12.121 11.413 12.3814 11.2587C12.5556 11.1493 12.7178 11.022 12.8654 10.8787C13.008 10.7392 13.1237 10.5747 13.2067 10.3933C13.2916 10.2043 13.3348 9.99922 13.3334 9.79201C13.3398 9.54815 13.2739 9.30783 13.144 9.10134C13.0216 8.90878 12.8493 8.75303 12.6454 8.65067C12.4305 8.54366 12.1933 8.48928 11.9534 8.49201C11.7234 8.49061 11.4959 8.53929 11.2867 8.63467C11.0755 8.73219 10.8958 8.88693 10.768 9.08134C10.7048 9.17338 10.655 9.27394 10.62 9.38001C10.5764 9.51724 10.4908 9.6373 10.3752 9.7232C10.2596 9.80909 10.12 9.85649 9.97603 9.85867C9.86782 9.85911 9.7611 9.83352 9.66486 9.78406C9.56862 9.73459 9.48569 9.6627 9.42307 9.57446C9.36045 9.48621 9.31998 9.3842 9.30506 9.27703C9.29014 9.16985 9.30122 9.06067 9.33736 8.95867C9.39784 8.79517 9.47751 8.63941 9.57469 8.49467C9.82192 8.12551 10.1673 7.83274 10.572 7.64934C11.0171 7.45601 11.4976 7.35791 11.9828 7.36135C12.468 7.3648 12.9471 7.46971 13.3894 7.66934C13.7844 7.85786 14.1178 8.15471 14.3507 8.52534C14.5848 8.91003 14.7038 9.35379 14.6934 9.80401C14.6985 10.1126 14.6451 10.4193 14.536 10.708C14.4343 10.9723 14.2831 11.2149 14.0907 11.4227C13.8879 11.6408 13.6544 11.8282 13.3974 11.9787C13.1712 12.1152 12.964 12.2811 12.7814 12.472C12.6207 12.6435 12.5037 12.8511 12.44 13.0773C12.4123 13.2018 12.3923 13.3278 12.38 13.4547C12.3614 13.6124 12.2855 13.7577 12.1668 13.8632C12.0481 13.9686 11.8948 14.0268 11.736 14.0267C11.646 14.0269 11.5569 14.0083 11.4745 13.972C11.392 13.9357 11.3181 13.8826 11.2575 13.816C11.1968 13.7495 11.1507 13.6709 11.1223 13.5855C11.0938 13.5001 11.0835 13.4097 11.092 13.32C11.1108 13.0817 11.1514 12.8456 11.2134 12.6147Z" fill="#0B0B0B"/>
<path d="M11.7227 16.6414C12.155 16.6414 12.5054 16.2909 12.5054 15.8587C12.5054 15.4264 12.155 15.076 11.7227 15.076C11.2904 15.076 10.94 15.4264 10.94 15.8587C10.94 16.2909 11.2904 16.6414 11.7227 16.6414Z" fill="#0B0B0B"/>
</svg>
