<svg width="12" height="12" viewBox="0 0 12 12" fill="none" xmlns="http://www.w3.org/2000/svg">
<path d="M10.6055 0.855469L6.85547 4.60547L6.375 4.125V4.11328L6.36328 4.10156C6.12305 3.8877 5.80957 3.78516 5.50781 3.78516C5.20605 3.78516 4.91455 3.89795 4.6875 4.125L4.62891 4.17188L4.44141 4.35938L4.3125 4.46484L0.890625 7.125L0.5625 7.39453L4.60547 11.4375L4.875 11.1094L7.52344 7.71094L7.53516 7.72266L7.91016 7.34766H7.92188L7.93359 7.33594C8.36133 6.854 8.36426 6.11426 7.91016 5.66016L7.39453 5.14453L11.1445 1.39453L10.6055 0.855469ZM5.50781 4.53516C5.62354 4.53223 5.75098 4.57178 5.84766 4.65234C5.85205 4.65527 5.85498 4.66113 5.85938 4.66406L7.38281 6.1875C7.52344 6.32812 7.53662 6.62695 7.38281 6.82031C7.37695 6.82764 7.37695 6.83643 7.37109 6.84375L7.25391 6.94922L5.08594 4.78125L5.21484 4.65234C5.28662 4.58057 5.39209 4.53809 5.50781 4.53516ZM4.51172 5.26172L6.73828 7.48828L4.53516 10.3008L3.99609 9.76172L4.80469 8.91797L4.26562 8.40234L3.46875 9.23438L2.97656 8.74219L4.42969 7.27734L3.90234 6.75L2.4375 8.20312L1.69922 7.46484L4.51172 5.26172Z" fill="#3CE7D2"/>
</svg>
