<svg width="18" height="16" viewBox="0 0 18 16" fill="none" xmlns="http://www.w3.org/2000/svg">
<path d="M6.75 1.70005C6.75 1.46135 6.84482 1.23244 7.0136 1.06365C7.18239 0.89487 7.4113 0.800049 7.65 0.800049C7.88869 0.800049 8.11761 0.89487 8.2864 1.06365C8.45518 1.23244 8.55 1.46135 8.55 1.70005C8.55 1.93874 8.45518 2.16766 8.2864 2.33645C8.11761 2.50523 7.88869 2.60005 7.65 2.60005C7.4113 2.60005 7.18239 2.50523 7.0136 2.33645C6.84482 2.16766 6.75 1.93874 6.75 1.70005ZM5.4 2.15005C5.63869 2.15005 5.86761 2.24487 6.0364 2.41365C6.20518 2.58244 6.3 2.81135 6.3 3.05005C6.3 3.28874 6.20518 3.51766 6.0364 3.68644C5.86761 3.85523 5.63869 3.95005 5.4 3.95005C5.1613 3.95005 4.93239 3.85523 4.7636 3.68644C4.59482 3.51766 4.5 3.28874 4.5 3.05005C4.5 2.81135 4.59482 2.58244 4.7636 2.41365C4.93239 2.24487 5.1613 2.15005 5.4 2.15005ZM4.5 4.40005C4.99781 4.40005 5.4 4.80224 5.4 5.30005H5.625C5.99906 5.30005 6.3 5.60099 6.3 5.97505V6.42505C6.3 6.47286 6.29437 6.52067 6.28594 6.56849C7.88344 7.25755 9 8.84942 9 10.7C9 13.1863 6.98625 15.2 4.5 15.2C2.01375 15.2 0 13.1863 0 10.7C0 8.84942 1.11656 7.25755 2.71406 6.56849C2.70281 6.52349 2.7 6.47567 2.7 6.42505V5.97505C2.7 5.60099 3.00094 5.30005 3.375 5.30005H3.6C3.6 4.80224 4.00219 4.40005 4.5 4.40005ZM4.5 13.4C4.85457 13.4 5.20567 13.3302 5.53325 13.1945C5.86082 13.0588 6.15847 12.86 6.40919 12.6092C6.65991 12.3585 6.85879 12.0609 6.99447 11.7333C7.13016 11.4057 7.2 11.0546 7.2 10.7C7.2 10.3455 7.13016 9.99438 6.99447 9.6668C6.85879 9.33922 6.65991 9.04158 6.40919 8.79086C6.15847 8.54014 5.86082 8.34126 5.53325 8.20557C5.20567 8.06989 4.85457 8.00005 4.5 8.00005C4.14543 8.00005 3.79433 8.06989 3.46675 8.20557C3.13918 8.34126 2.84153 8.54014 2.59081 8.79086C2.34009 9.04158 2.14121 9.33922 2.00553 9.6668C1.86984 9.99438 1.8 10.3455 1.8 10.7C1.8 11.0546 1.86984 11.4057 2.00553 11.7333C2.14121 12.0609 2.34009 12.3585 2.59081 12.6092C2.84153 12.86 3.13918 13.0588 3.46675 13.1945C3.79433 13.3302 4.14543 13.4 4.5 13.4ZM9.9 10.7C9.9 9.97161 9.75656 9.27974 9.495 8.64411C9.97031 7.7188 10.755 6.98192 11.7141 6.56567C11.7028 6.52067 11.7 6.47286 11.7 6.42224V5.97505C11.7 5.60099 12.0009 5.30005 12.375 5.30005H12.6C12.6 4.80224 13.0022 4.40005 13.5 4.40005C13.9978 4.40005 14.4 4.80224 14.4 5.30005H14.625C14.9991 5.30005 15.3 5.60099 15.3 5.97505V6.42505C15.3 6.47286 15.2944 6.52067 15.2859 6.56849C16.8834 7.25755 18 8.84942 18 10.7C18 13.1863 15.9862 15.2 13.5 15.2C11.7562 15.2 10.2431 14.2072 9.495 12.756C9.75656 12.1232 9.9 11.4285 9.9 10.7ZM16.2 10.7C16.2 9.98396 15.9155 9.29721 15.4092 8.79086C14.9028 8.28451 14.2161 8.00005 13.5 8.00005C12.7839 8.00005 12.0972 8.28451 11.5908 8.79086C11.0845 9.29721 10.8 9.98396 10.8 10.7C10.8 11.4161 11.0845 12.1029 11.5908 12.6092C12.0972 13.1156 12.7839 13.4 13.5 13.4C14.2161 13.4 14.9028 13.1156 15.4092 12.6092C15.9155 12.1029 16.2 11.4161 16.2 10.7ZM10.35 0.800049C10.5887 0.800049 10.8176 0.89487 10.9864 1.06365C11.1552 1.23244 11.25 1.46135 11.25 1.70005C11.25 1.93874 11.1552 2.16766 10.9864 2.33645C10.8176 2.50523 10.5887 2.60005 10.35 2.60005C10.1113 2.60005 9.88239 2.50523 9.7136 2.33645C9.54482 2.16766 9.45 1.93874 9.45 1.70005C9.45 1.46135 9.54482 1.23244 9.7136 1.06365C9.88239 0.89487 10.1113 0.800049 10.35 0.800049ZM12.6 2.15005C12.8387 2.15005 13.0676 2.24487 13.2364 2.41365C13.4052 2.58244 13.5 2.81135 13.5 3.05005C13.5 3.28874 13.4052 3.51766 13.2364 3.68644C13.0676 3.85523 12.8387 3.95005 12.6 3.95005C12.3613 3.95005 12.1324 3.85523 11.9636 3.68644C11.7948 3.51766 11.7 3.28874 11.7 3.05005C11.7 2.81135 11.7948 2.58244 11.9636 2.41365C12.1324 2.24487 12.3613 2.15005 12.6 2.15005Z" fill="#3CE7D2"/>
</svg>
