<svg width="30" height="30" viewBox="0 0 30 30" fill="none" xmlns="http://www.w3.org/2000/svg">
<g clipPath="url(#clip0_7_20)">
<path d="M15 2.8125C8.26758 2.8125 2.8125 8.26758 2.8125 15V17.3438C2.8125 18.123 2.18555 18.75 1.40625 18.75C0.626953 18.75 0 18.123 0 17.3438V15C0 6.71484 6.71484 0 15 0C23.2852 0 30 6.71484 30 15V23.4434C30 26.291 27.6914 28.5996 24.8379 28.5996L18.375 28.5938C17.8887 29.4316 16.9805 30 15.9375 30H14.0625C12.5098 30 11.25 28.7402 11.25 27.1875C11.25 25.6348 12.5098 24.375 14.0625 24.375H15.9375C16.9805 24.375 17.8887 24.9434 18.375 25.7812L24.8438 25.7871C26.1387 25.7871 27.1875 24.7383 27.1875 23.4434V15C27.1875 8.26758 21.7324 2.8125 15 2.8125ZM8.4375 12.1875H9.375C10.4121 12.1875 11.25 13.0254 11.25 14.0625V20.625C11.25 21.6621 10.4121 22.5 9.375 22.5H8.4375C6.36914 22.5 4.6875 20.8184 4.6875 18.75V15.9375C4.6875 13.8691 6.36914 12.1875 8.4375 12.1875ZM21.5625 12.1875C23.6309 12.1875 25.3125 13.8691 25.3125 15.9375V18.75C25.3125 20.8184 23.6309 22.5 21.5625 22.5H20.625C19.5879 22.5 18.75 21.6621 18.75 20.625V14.0625C18.75 13.0254 19.5879 12.1875 20.625 12.1875H21.5625Z" fill="#505050"/>
</g>
<defs>
<clipPath id="clip0_7_20">
<rect width="30" height="30" fill="white"/>
</clipPath>
</defs>
</svg>
