<svg width="11" height="11" viewBox="0 0 11 11" fill="none" xmlns="http://www.w3.org/2000/svg">
<g filter="url(#filter0_d_9_221)">
<path d="M9.36719 0H7.66992C7.44004 0 7.32617 0.277148 7.4873 0.44043L7.85039 0.803516L6.1166 2.5373C5.63965 2.23652 5.07461 2.0625 4.46875 2.0625C2.76074 2.0625 1.375 3.44824 1.375 5.15625C1.375 6.62793 2.4041 7.86113 3.78125 8.17266V8.76562H3.00781C2.86602 8.76562 2.75 8.88164 2.75 9.02344V9.88281C2.75 10.0246 2.86602 10.1406 3.00781 10.1406H3.78125V10.7422C3.78125 10.884 3.89727 11 4.03906 11H4.89844C5.04023 11 5.15625 10.884 5.15625 10.7422V10.1406H5.92969C6.07148 10.1406 6.1875 10.0246 6.1875 9.88281V9.02344C6.1875 8.88164 6.07148 8.76562 5.92969 8.76562H5.15625V8.17266C6.5334 7.85898 7.5625 6.62793 7.5625 5.15625C7.5625 4.55039 7.38848 3.98535 7.0877 3.5084L8.82148 1.77461L9.18457 2.1377C9.34785 2.30098 9.625 2.18496 9.625 1.95508V0.257812C9.625 0.116016 9.50898 0 9.36719 0ZM4.46875 6.875C3.52129 6.875 2.75 6.10371 2.75 5.15625C2.75 4.20879 3.52129 3.4375 4.46875 3.4375C5.41621 3.4375 6.1875 4.20879 6.1875 5.15625C6.1875 6.10371 5.41621 6.875 4.46875 6.875Z" fill="#3CE7D2"/>
<path d="M9.36719 0H7.66992C7.44004 0 7.32617 0.277148 7.4873 0.44043L7.85039 0.803516L6.1166 2.5373C5.63965 2.23652 5.07461 2.0625 4.46875 2.0625C2.76074 2.0625 1.375 3.44824 1.375 5.15625C1.375 6.62793 2.4041 7.86113 3.78125 8.17266V8.76562H3.00781C2.86602 8.76562 2.75 8.88164 2.75 9.02344V9.88281C2.75 10.0246 2.86602 10.1406 3.00781 10.1406H3.78125V10.7422C3.78125 10.884 3.89727 11 4.03906 11H4.89844C5.04023 11 5.15625 10.884 5.15625 10.7422V10.1406H5.92969C6.07148 10.1406 6.1875 10.0246 6.1875 9.88281V9.02344C6.1875 8.88164 6.07148 8.76562 5.92969 8.76562H5.15625V8.17266C6.5334 7.85898 7.5625 6.62793 7.5625 5.15625C7.5625 4.55039 7.38848 3.98535 7.0877 3.5084L8.82148 1.77461L9.18457 2.1377C9.34785 2.30098 9.625 2.18496 9.625 1.95508V0.257812C9.625 0.116016 9.50898 0 9.36719 0ZM4.46875 6.875C3.52129 6.875 2.75 6.10371 2.75 5.15625C2.75 4.20879 3.52129 3.4375 4.46875 3.4375C5.41621 3.4375 6.1875 4.20879 6.1875 5.15625C6.1875 6.10371 5.41621 6.875 4.46875 6.875Z" stroke="#3CE7D2"/>
</g>
</svg>
