<svg width="12" height="12" viewBox="0 0 12 12" fill="none" xmlns="http://www.w3.org/2000/svg">
<g filter="url(#filter0_d_9_219)">
<path d="M12 3.11796V10.333C12 10.5688 11.7619 10.73 11.5429 10.6425L8.66667 9.33337V1.33337L11.5808 2.499C11.7045 2.54848 11.8106 2.63389 11.8853 2.74421C11.96 2.85454 12 2.98472 12 3.11796ZM8 9.33337L4 10.6667V2.66671L8 1.33337V9.33337ZM0.457083 1.35754L3.33333 2.66671V10.6667L0.419167 9.50108C0.295437 9.45162 0.189369 9.36622 0.114653 9.25589C0.039937 9.14556 9.53674e-07 9.01537 0 8.88212V1.66712C0 1.43129 0.238125 1.27004 0.457083 1.35754Z" fill="#3CE7D2"/>
<path d="M12 3.11796V10.333C12 10.5688 11.7619 10.73 11.5429 10.6425L8.66667 9.33337V1.33337L11.5808 2.499C11.7045 2.54848 11.8106 2.63389 11.8853 2.74421C11.96 2.85454 12 2.98472 12 3.11796ZM8 9.33337L4 10.6667V2.66671L8 1.33337V9.33337ZM0.457083 1.35754L3.33333 2.66671V10.6667L0.419167 9.50108C0.295437 9.45162 0.189369 9.36622 0.114653 9.25589C0.039937 9.14556 9.53674e-07 9.01537 0 8.88212V1.66712C0 1.43129 0.238125 1.27004 0.457083 1.35754Z" stroke="#3CE7D2"/>
</g>
</svg>
