<svg width="14" height="14" viewBox="0 0 14 14" fill="none" xmlns="http://www.w3.org/2000/svg">
<g clip-path="url(#clip0_17_740)">
<g filter="url(#filter0_d_17_740)">
<path d="M2.28564 9.74999V11.7143H4.24993L10.0433 5.92094L8.07898 3.95666L2.28564 9.74999ZM11.5623 4.40189C11.6109 4.35344 11.6494 4.29587 11.6757 4.23251C11.702 4.16914 11.7155 4.10121 11.7155 4.03261C11.7155 3.96401 11.702 3.89608 11.6757 3.83271C11.6494 3.76934 11.6109 3.71178 11.5623 3.66332L10.3366 2.43761C10.2881 2.38905 10.2306 2.35052 10.1672 2.32424C10.1038 2.29795 10.0359 2.28442 9.96731 2.28442C9.89871 2.28442 9.83078 2.29795 9.76741 2.32424C9.70404 2.35052 9.64648 2.38905 9.59802 2.43761L8.63945 3.39618L10.6037 5.36047L11.5623 4.40189Z" fill="#3CE7D2"/>
<path d="M2.28564 9.74999V11.7143H4.24993L10.0433 5.92094L8.07898 3.95666L2.28564 9.74999ZM11.5623 4.40189C11.6109 4.35344 11.6494 4.29587 11.6757 4.23251C11.702 4.16914 11.7155 4.10121 11.7155 4.03261C11.7155 3.96401 11.702 3.89608 11.6757 3.83271C11.6494 3.76934 11.6109 3.71178 11.5623 3.66332L10.3366 2.43761C10.2881 2.38905 10.2306 2.35052 10.1672 2.32424C10.1038 2.29795 10.0359 2.28442 9.96731 2.28442C9.89871 2.28442 9.83078 2.29795 9.76741 2.32424C9.70404 2.35052 9.64648 2.38905 9.59802 2.43761L8.63945 3.39618L10.6037 5.36047L11.5623 4.40189Z" stroke="#3CE7D2"/>
</g>
</g>
<defs>
<filter id="filter0_d_17_740" x="0.385645" y="0.384424" width="13.2297" height="13.2299" filterUnits="userSpaceOnUse" color-interpolation-filters="sRGB">
<feFlood flood-opacity="0" result="BackgroundImageFix"/>
<feColorMatrix in="SourceAlpha" type="matrix" values="0 0 0 0 0 0 0 0 0 0 0 0 0 0 0 0 0 0 127 0" result="hardAlpha"/>
<feOffset/>
<feGaussianBlur stdDeviation="0.95"/>
<feColorMatrix type="matrix" values="0 0 0 0 0 0 0 0 0 0.76 0 0 0 0 1 0 0 0 0.5 0"/>
<feBlend mode="normal" in2="BackgroundImageFix" result="effect1_dropShadow_17_740"/>
<feBlend mode="normal" in="SourceGraphic" in2="effect1_dropShadow_17_740" result="shape"/>
</filter>
<clipPath id="clip0_17_740">
<rect width="12.5714" height="12.5714" fill="white" transform="translate(0.714355 0.714279)"/>
</clipPath>
</defs>
</svg>
