<svg width="16" height="16" viewBox="0 0 16 16" fill="none" xmlns="http://www.w3.org/2000/svg">
<g filter="url(#filter0_d_66_61)">
<path d="M7.99999 0.78125C8.65624 0.78125 9.09174 1.10881 9.67593 1.43334C10.2296 1.74094 10.9256 2.00472 11.9072 1.80428C12.373 2.26991 12.8462 2.73563 13.3509 3.05103C13.7639 3.30916 14.228 3.46291 14.6909 3.39025C14.5581 4.43525 13.9236 5.45744 13.2602 5.9925C11.5108 5.41275 9.75705 5.12275 8.0033 5.12275C6.24793 5.12275 4.49258 5.41328 2.74161 5.99409C2.07755 5.45947 1.44193 4.43628 1.30902 3.39028C1.77183 3.46297 2.23602 3.30916 2.64902 3.05106C3.15371 2.73566 3.6269 2.26997 4.09277 1.80434C5.07424 2.00475 5.77037 1.74097 6.32402 1.43341C6.90827 1.10875 7.34374 0.78125 7.99999 0.78125ZM8.00327 1.39188C7.38405 1.39188 6.34171 2.22869 6.34171 2.22869C6.34171 2.22869 7.00483 4.73913 8.00327 4.73913C9.00177 4.73913 9.6649 2.22869 9.6649 2.22869C9.6649 2.22869 8.62249 1.39188 8.00327 1.39188ZM8.00327 5.68313C9.65296 5.68313 11.3028 5.95281 12.9565 6.48731C13.0246 6.90825 12.9093 7.22106 12.6613 7.51031C12.3844 7.83322 11.9196 8.10728 11.3688 8.31375C10.2669 8.72681 8.83805 8.873 8.00324 8.873C7.16846 8.873 5.73968 8.72681 4.63783 8.31378C4.0869 8.10731 3.62221 7.83325 3.34533 7.51034C3.09721 7.22106 2.98183 6.90831 3.05002 6.48734C4.70377 5.95281 6.35355 5.68313 8.00324 5.68313H8.00327ZM13.4166 7.46894C13.7235 7.54338 14.2582 7.71191 14.3543 8C14.6169 8.78741 13.8256 9.99359 13.2271 10.7547C13.392 10.0671 13.4809 9.33563 13.4809 8.57719C13.4809 8.20038 13.4588 7.83031 13.4166 7.46894ZM2.59005 7.46894C2.54719 7.83679 2.52573 8.20682 2.5258 8.57716C2.5258 9.33559 2.61465 10.067 2.77955 10.7547C2.18111 9.99356 1.38977 8.78738 1.65236 7.99997C1.7484 7.71184 2.28318 7.54334 2.59002 7.46891L2.59005 7.46894ZM12.9035 8.06806C12.913 8.23609 12.9183 8.40575 12.9183 8.57713C12.9183 10.4326 12.3518 12.1071 11.4526 13.3054C10.5535 14.5038 9.3369 15.2214 8.00324 15.2214C6.66968 15.2214 5.45305 14.5038 4.55396 13.3054C3.65483 12.1071 3.08833 10.4326 3.08833 8.57716C3.08833 8.40572 3.09365 8.23606 3.10315 8.06803C3.3594 8.30728 3.6724 8.50141 4.01674 8.66272C3.8833 9.23147 4.02505 9.93891 4.3948 10.3085C5.07524 10.9887 6.60121 10.9887 7.28168 10.3085C7.49243 10.0978 7.58283 9.76203 7.5709 9.42513C7.72508 9.43188 7.8709 9.43544 8.0033 9.43544C8.13574 9.43544 8.28158 9.43188 8.4358 9.42513C8.42383 9.762 8.51424 10.0978 8.72505 10.3085C9.40552 10.9887 10.9314 10.9887 11.6119 10.3085C11.9816 9.93891 12.1234 9.23156 11.9899 8.66281C12.3343 8.5015 12.6474 8.30731 12.9036 8.06806H12.9035ZM8.00327 11.7513C7.28158 12.9056 5.83821 13.0499 5.11652 13.0499C5.83818 13.627 8.00324 13.627 8.00324 13.0499C8.00324 13.627 10.1684 13.627 10.8901 13.0499C10.1684 13.0499 8.72496 12.9056 8.00324 11.7513H8.00327Z" fill="#3CE7D2"/>
</g>

</svg>
