<svg width="16" height="16" viewBox="0 0 16 16" fill="none" xmlns="http://www.w3.org/2000/svg">
<g filter="url(#filter0_d_17_744)">
<path d="M13.2484 4.84852L11.1514 2.75147C10.9263 2.52642 10.6211 2.4 10.3029 2.39999H3.5999C2.93715 2.39999 2.3999 2.93724 2.3999 3.59999V12.4C2.3999 13.0627 2.93715 13.6 3.5999 13.6H12.3999C13.0627 13.6 13.5999 13.0627 13.5999 12.4V5.69704C13.5999 5.37878 13.4735 5.07356 13.2484 4.84852ZM7.9999 12C7.11625 12 6.3999 11.2836 6.3999 10.4C6.3999 9.51634 7.11625 8.79999 7.9999 8.79999C8.88355 8.79999 9.5999 9.51634 9.5999 10.4C9.5999 11.2836 8.88355 12 7.9999 12ZM10.3999 4.38699V6.89999C10.3999 7.06567 10.2656 7.19999 10.0999 7.19999H4.2999C4.13423 7.19999 3.9999 7.06567 3.9999 6.89999V4.29999C3.9999 4.13432 4.13423 3.99999 4.2999 3.99999H10.0129C10.0925 3.99999 10.1688 4.03159 10.225 4.08787L10.312 4.17487C10.3399 4.20272 10.362 4.23579 10.3771 4.27219C10.3921 4.30859 10.3999 4.3476 10.3999 4.38699Z" fill="#3CE7D2"/>
<path d="M13.2484 4.84852L11.1514 2.75147C10.9263 2.52642 10.6211 2.4 10.3029 2.39999H3.5999C2.93715 2.39999 2.3999 2.93724 2.3999 3.59999V12.4C2.3999 13.0627 2.93715 13.6 3.5999 13.6H12.3999C13.0627 13.6 13.5999 13.0627 13.5999 12.4V5.69704C13.5999 5.37878 13.4735 5.07356 13.2484 4.84852ZM7.9999 12C7.11625 12 6.3999 11.2836 6.3999 10.4C6.3999 9.51634 7.11625 8.79999 7.9999 8.79999C8.88355 8.79999 9.5999 9.51634 9.5999 10.4C9.5999 11.2836 8.88355 12 7.9999 12ZM10.3999 4.38699V6.89999C10.3999 7.06567 10.2656 7.19999 10.0999 7.19999H4.2999C4.13423 7.19999 3.9999 7.06567 3.9999 6.89999V4.29999C3.9999 4.13432 4.13423 3.99999 4.2999 3.99999H10.0129C10.0925 3.99999 10.1688 4.03159 10.225 4.08787L10.312 4.17487C10.3399 4.20272 10.362 4.23579 10.3771 4.27219C10.3921 4.30859 10.3999 4.3476 10.3999 4.38699Z" stroke="#3CE7D2"/>
</g>
<defs>
<filter id="filter0_d_17_744" x="0.499902" y="0.499994" width="15.0002" height="15" filterUnits="userSpaceOnUse" color-interpolation-filters="sRGB">
<feFlood flood-opacity="0" result="BackgroundImageFix"/>
<feColorMatrix in="SourceAlpha" type="matrix" values="0 0 0 0 0 0 0 0 0 0 0 0 0 0 0 0 0 0 127 0" result="hardAlpha"/>
<feOffset/>
<feGaussianBlur stdDeviation="0.95"/>
<feColorMatrix type="matrix" values="0 0 0 0 0 0 0 0 0 0.76 0 0 0 0 1 0 0 0 0.5 0"/>
<feBlend mode="normal" in2="BackgroundImageFix" result="effect1_dropShadow_17_744"/>
<feBlend mode="normal" in="SourceGraphic" in2="effect1_dropShadow_17_744" result="shape"/>
</filter>
</defs>
</svg>
