<svg width="11" height="11" viewBox="0 0 11 11" fill="none" xmlns="http://www.w3.org/2000/svg">
<g filter="url(#filter0_d_17_650)">
<path d="M9.2177 3.26757L7.73229 1.78216C7.57288 1.62276 7.35668 1.5332 7.13125 1.5332H2.38333C1.91388 1.5332 1.53333 1.91376 1.53333 2.3832V8.61654C1.53333 9.08598 1.91388 9.46654 2.38333 9.46654H8.61666C9.08611 9.46654 9.46666 9.08598 9.46666 8.61654V3.86861C9.46666 3.64318 9.3771 3.42698 9.2177 3.26757ZM5.49999 8.3332C4.87407 8.3332 4.36666 7.82579 4.36666 7.19987C4.36666 6.57395 4.87407 6.06654 5.49999 6.06654C6.12591 6.06654 6.63333 6.57395 6.63333 7.19987C6.63333 7.82579 6.12591 8.3332 5.49999 8.3332ZM7.19999 2.94066V4.7207C7.19999 4.83806 7.10485 4.9332 6.98749 4.9332H2.87916C2.76181 4.9332 2.66666 4.83806 2.66666 4.7207V2.87904C2.66666 2.76168 2.76181 2.66654 2.87916 2.66654H6.92587C6.98223 2.66654 7.03628 2.68892 7.07612 2.72878L7.13775 2.79041C7.15748 2.81014 7.17314 2.83356 7.18382 2.85934C7.1945 2.88512 7.19999 2.91276 7.19999 2.94066Z" fill="#3CE7D2"/>
<path d="M9.2177 3.26757L7.73229 1.78216C7.57288 1.62276 7.35668 1.5332 7.13125 1.5332H2.38333C1.91388 1.5332 1.53333 1.91376 1.53333 2.3832V8.61654C1.53333 9.08598 1.91388 9.46654 2.38333 9.46654H8.61666C9.08611 9.46654 9.46666 9.08598 9.46666 8.61654V3.86861C9.46666 3.64318 9.3771 3.42698 9.2177 3.26757ZM5.49999 8.3332C4.87407 8.3332 4.36666 7.82579 4.36666 7.19987C4.36666 6.57395 4.87407 6.06654 5.49999 6.06654C6.12591 6.06654 6.63333 6.57395 6.63333 7.19987C6.63333 7.82579 6.12591 8.3332 5.49999 8.3332ZM7.19999 2.94066V4.7207C7.19999 4.83806 7.10485 4.9332 6.98749 4.9332H2.87916C2.76181 4.9332 2.66666 4.83806 2.66666 4.7207V2.87904C2.66666 2.76168 2.76181 2.66654 2.87916 2.66654H6.92587C6.98223 2.66654 7.03628 2.68892 7.07612 2.72878L7.13775 2.79041C7.15748 2.81014 7.17314 2.83356 7.18382 2.85934C7.1945 2.88512 7.19999 2.91276 7.19999 2.94066Z" stroke="#3CE7D2"/>
</g>
</svg>
