<svg width="16" height="18" viewBox="0 0 16 18" fill="none" xmlns="http://www.w3.org/2000/svg">
<path d="M8 9C10.4855 9 12.5 6.98555 12.5 4.5C12.5 2.01445 10.4855 0 8 0C5.51445 0 3.5 2.01445 3.5 4.5C3.5 6.98555 5.51445 9 8 9ZM11.15 10.125H10.5629C9.78242 10.4836 8.91406 10.6875 8 10.6875C7.08594 10.6875 6.22109 10.4836 5.43711 10.125H4.85C2.24141 10.125 0.125 12.2414 0.125 14.85V16.3125C0.125 17.2441 0.880859 18 1.8125 18H14.1875C15.1191 18 15.875 17.2441 15.875 16.3125V14.85C15.875 12.2414 13.7586 10.125 11.15 10.125Z" fill="#3CE7D2"/>
</svg>
