<svg width="24" height="24" viewBox="0 0 24 24" fill="none" xmlns="http://www.w3.org/2000/svg">
<g clipPath="url(#clip0_6_25)">
<path d="M23.437 8.25H20.6306L19.8506 6.3C19.0491 4.29516 17.1361 3 14.9766 3H9.02345C6.86439 3 4.95095 4.29516 4.14892 6.3L3.36892 8.25H0.562981C0.196888 8.25 -0.0717061 8.59406 0.0173564 8.94891L0.298606 10.0739C0.36095 10.3242 0.58595 10.5 0.844231 10.5H1.78501C1.15548 11.0498 0.750013 11.8491 0.750013 12.75V15C0.750013 15.7556 1.03876 16.4377 1.50001 16.9655V19.5C1.50001 20.3283 2.17173 21 3.00001 21H4.50001C5.32829 21 6.00001 20.3283 6.00001 19.5V18H18V19.5C18 20.3283 18.6717 21 19.5 21H21C21.8283 21 22.5 20.3283 22.5 19.5V16.9655C22.9613 16.4381 23.25 15.7561 23.25 15V12.75C23.25 11.8491 22.8445 11.0498 22.2155 10.5H23.1563C23.4145 10.5 23.6395 10.3242 23.7019 10.0739L23.9831 8.94891C24.0717 8.59406 23.8031 8.25 23.437 8.25ZM6.93423 7.41422C7.27595 6.56016 8.10329 6 9.02345 6H14.9766C15.8967 6 16.7241 6.56016 17.0658 7.41422L18 9.75H6.00001L6.93423 7.41422ZM4.50001 14.9906C3.60001 14.9906 3.00001 14.3925 3.00001 13.4953C3.00001 12.5981 3.60001 12 4.50001 12C5.40001 12 6.75001 13.3458 6.75001 14.243C6.75001 15.1402 5.40001 14.9906 4.50001 14.9906ZM19.5 14.9906C18.6 14.9906 17.25 15.1402 17.25 14.243C17.25 13.3458 18.6 12 19.5 12C20.4 12 21 12.5981 21 13.4953C21 14.3925 20.4 14.9906 19.5 14.9906Z" fill="#505050"/>
</g>
<defs>
<clipPath id="clip0_6_25">
<rect width="24" height="24" fill="white"/>
</clipPath>
</defs>
</svg>
