<svg width="13" height="11" viewBox="0 0 13 11" fill="none" xmlns="http://www.w3.org/2000/svg">
<path d="M12.695 3.46875H11.1748L10.7523 2.4125C10.3182 1.32654 9.28196 0.625 8.11221 0.625H4.8876C3.71811 0.625 2.68167 1.32654 2.24723 2.4125L1.82473 3.46875H0.304849C0.106548 3.46875 -0.03894 3.65512 0.00930219 3.84732L0.161646 4.4567C0.195415 4.59229 0.31729 4.6875 0.457193 4.6875H0.966783C0.625787 4.98533 0.406158 5.41824 0.406158 5.90625V7.125C0.406158 7.5343 0.562564 7.90373 0.812408 8.18963V9.5625C0.812408 10.0112 1.17626 10.375 1.62491 10.375H2.43741C2.88606 10.375 3.24991 10.0112 3.24991 9.5625V8.75H9.74991V9.5625C9.74991 10.0112 10.1138 10.375 10.5624 10.375H11.3749C11.8236 10.375 12.1874 10.0112 12.1874 9.5625V8.18963C12.4373 7.90398 12.5937 7.53455 12.5937 7.125V5.90625C12.5937 5.41824 12.374 4.98533 12.0333 4.6875H12.5429C12.6828 4.6875 12.8047 4.59229 12.8384 4.4567L12.9908 3.84732C13.0388 3.65512 12.8933 3.46875 12.695 3.46875ZM3.75594 3.01604C3.94104 2.55342 4.38919 2.25 4.8876 2.25H8.11221C8.61063 2.25 9.05878 2.55342 9.24387 3.01604L9.74991 4.28125H3.24991L3.75594 3.01604ZM2.43741 7.11992C1.94991 7.11992 1.62491 6.79594 1.62491 6.30996C1.62491 5.82398 1.94991 5.5 2.43741 5.5C2.92491 5.5 3.65616 6.22896 3.65616 6.71494C3.65616 7.20092 2.92491 7.11992 2.43741 7.11992ZM10.5624 7.11992C10.0749 7.11992 9.34366 7.20092 9.34366 6.71494C9.34366 6.22896 10.0749 5.5 10.5624 5.5C11.0499 5.5 11.3749 5.82398 11.3749 6.30996C11.3749 6.79594 11.0499 7.11992 10.5624 7.11992Z" fill="#3CE7D2"/>
</svg>
