<svg width="24" height="24" viewBox="0 0 24 24" fill="none" xmlns="http://www.w3.org/2000/svg">
<path d="M9 3.59999C9 3.28173 9.12643 2.97651 9.35147 2.75147C9.57652 2.52642 9.88174 2.39999 10.2 2.39999C10.5183 2.39999 10.8235 2.52642 11.0485 2.75147C11.2736 2.97651 11.4 3.28173 11.4 3.59999C11.4 3.91825 11.2736 4.22348 11.0485 4.44852C10.8235 4.67357 10.5183 4.79999 10.2 4.79999C9.88174 4.79999 9.57652 4.67357 9.35147 4.44852C9.12643 4.22348 9 3.91825 9 3.59999ZM7.2 4.19999C7.51826 4.19999 7.82348 4.32642 8.04853 4.55147C8.27357 4.77651 8.4 5.08173 8.4 5.39999C8.4 5.71825 8.27357 6.02348 8.04853 6.24852C7.82348 6.47357 7.51826 6.59999 7.2 6.59999C6.88174 6.59999 6.57652 6.47357 6.35147 6.24852C6.12643 6.02348 6 5.71825 6 5.39999C6 5.08173 6.12643 4.77651 6.35147 4.55147C6.57652 4.32642 6.88174 4.19999 7.2 4.19999ZM6 7.19999C6.66375 7.19999 7.2 7.73624 7.2 8.39999H7.5C7.99875 8.39999 8.4 8.80124 8.4 9.29999V9.89999C8.4 9.96374 8.3925 10.0275 8.38125 10.0912C10.5113 11.01 12 13.1325 12 15.6C12 18.915 9.315 21.6 6 21.6C2.685 21.6 0 18.915 0 15.6C0 13.1325 1.48875 11.01 3.61875 10.0912C3.60375 10.0312 3.6 9.96749 3.6 9.89999V9.29999C3.6 8.80124 4.00125 8.39999 4.5 8.39999H4.8C4.8 7.73624 5.33625 7.19999 6 7.19999ZM6 19.2C6.47276 19.2 6.94089 19.1069 7.37766 18.926C7.81443 18.745 8.21129 18.4799 8.54558 18.1456C8.87988 17.8113 9.14505 17.4144 9.32597 16.9777C9.50688 16.5409 9.6 16.0728 9.6 15.6C9.6 15.1272 9.50688 14.6591 9.32597 14.2223C9.14505 13.7856 8.87988 13.3887 8.54558 13.0544C8.21129 12.7201 7.81443 12.4549 7.37766 12.274C6.94089 12.0931 6.47276 12 6 12C5.52724 12 5.05911 12.0931 4.62234 12.274C4.18557 12.4549 3.78871 12.7201 3.45442 13.0544C3.12012 13.3887 2.85495 13.7856 2.67403 14.2223C2.49312 14.6591 2.4 15.1272 2.4 15.6C2.4 16.0728 2.49312 16.5409 2.67403 16.9777C2.85495 17.4144 3.12012 17.8113 3.45442 18.1456C3.78871 18.4799 4.18557 18.745 4.62234 18.926C5.05911 19.1069 5.52724 19.2 6 19.2ZM13.2 15.6C13.2 14.6287 13.0088 13.7062 12.66 12.8587C13.2938 11.625 14.34 10.6425 15.6188 10.0875C15.6038 10.0275 15.6 9.96374 15.6 9.89624V9.29999C15.6 8.80124 16.0013 8.39999 16.5 8.39999H16.8C16.8 7.73624 17.3363 7.19999 18 7.19999C18.6638 7.19999 19.2 7.73624 19.2 8.39999H19.5C19.9988 8.39999 20.4 8.80124 20.4 9.29999V9.89999C20.4 9.96374 20.3925 10.0275 20.3813 10.0912C22.5113 11.01 24 13.1325 24 15.6C24 18.915 21.315 21.6 18 21.6C15.675 21.6 13.6575 20.2762 12.66 18.3412C13.0088 17.4975 13.2 16.5712 13.2 15.6ZM21.6 15.6C21.6 14.6452 21.2207 13.7295 20.5456 13.0544C19.8705 12.3793 18.9548 12 18 12C17.0452 12 16.1295 12.3793 15.4544 13.0544C14.7793 13.7295 14.4 14.6452 14.4 15.6C14.4 16.5548 14.7793 17.4704 15.4544 18.1456C16.1295 18.8207 17.0452 19.2 18 19.2C18.9548 19.2 19.8705 18.8207 20.5456 18.1456C21.2207 17.4704 21.6 16.5548 21.6 15.6ZM13.8 2.39999C14.1183 2.39999 14.4235 2.52642 14.6485 2.75147C14.8736 2.97651 15 3.28173 15 3.59999C15 3.91825 14.8736 4.22348 14.6485 4.44852C14.4235 4.67357 14.1183 4.79999 13.8 4.79999C13.4817 4.79999 13.1765 4.67357 12.9515 4.44852C12.7264 4.22348 12.6 3.91825 12.6 3.59999C12.6 3.28173 12.7264 2.97651 12.9515 2.75147C13.1765 2.52642 13.4817 2.39999 13.8 2.39999ZM16.8 4.19999C17.1183 4.19999 17.4235 4.32642 17.6485 4.55147C17.8736 4.77651 18 5.08173 18 5.39999C18 5.71825 17.8736 6.02348 17.6485 6.24852C17.4235 6.47357 17.1183 6.59999 16.8 6.59999C16.4817 6.59999 16.1765 6.47357 15.9515 6.24852C15.7264 6.02348 15.6 5.71825 15.6 5.39999C15.6 5.08173 15.7264 4.77651 15.9515 4.55147C16.1765 4.32642 16.4817 4.19999 16.8 4.19999Z" fill="#505050"/>
</svg>
